<svg xmlns="http://www.w3.org/2000/svg" width="1600" height="1144" viewBox="0 0 1600 1144" font-family="Inter, Helvetica, Arial, sans-serif">
<rect width="1600" height="1144" rx="28" fill="#0C0C0C"/>
<rect x="56" y="160" width="1488" height="964" rx="18" fill="#000000"/>
<text x="96" y="222" font-size="40" font-weight="700" fill="#FFFFFF">Open vs. Closed Model Spend</text>
<text x="96" y="260" font-size="21" fill="#A1A1A1">Share of Vercel AI Gateway spend on models that publish their weights for download, versus everything else — with closed weights split by lab.</text>
<text x="1504" y="190" text-anchor="end" font-family="ui-monospace, Menlo, monospace" font-size="20" fill="#8F8F8F">github.com/jeremiahdillon/vercel-open-vs-closed-spend</text>
<rect x="97.72" y="537.56" width="12.20" height="260.44" fill="#FDB103"/>
<rect x="97.72" y="424.59" width="12.20" height="110.98" fill="#C98200"/>
<rect x="97.72" y="331.59" width="12.20" height="91.00" fill="#8A5A00"/>
<rect x="97.72" y="300.00" width="12.20" height="29.59" fill="#0D59E0"/>
<rect x="113.37" y="494.70" width="12.20" height="303.30" fill="#FDB103"/>
<rect x="113.37" y="409.88" width="12.20" height="82.82" fill="#C98200"/>
<rect x="113.37" y="326.50" width="12.20" height="81.38" fill="#8A5A00"/>
<rect x="113.37" y="300.00" width="12.20" height="24.50" fill="#0D59E0"/>
<rect x="129.01" y="518.16" width="12.20" height="279.84" fill="#FDB103"/>
<rect x="129.01" y="392.35" width="12.20" height="123.81" fill="#C98200"/>
<rect x="129.01" y="322.50" width="12.20" height="67.85" fill="#8A5A00"/>
<rect x="129.01" y="300.00" width="12.20" height="20.50" fill="#0D59E0"/>
<rect x="144.65" y="508.65" width="12.20" height="289.35" fill="#FDB103"/>
<rect x="144.65" y="386.29" width="12.20" height="120.36" fill="#C98200"/>
<rect x="144.65" y="323.35" width="12.20" height="60.94" fill="#8A5A00"/>
<rect x="144.65" y="300.00" width="12.20" height="21.35" fill="#0D59E0"/>
<rect x="160.30" y="458.46" width="12.20" height="339.54" fill="#FDB103"/>
<rect x="160.30" y="397.12" width="12.20" height="59.35" fill="#C98200"/>
<rect x="160.30" y="328.72" width="12.20" height="66.40" fill="#8A5A00"/>
<rect x="160.30" y="300.00" width="12.20" height="26.72" fill="#0D59E0"/>
<rect x="175.94" y="460.42" width="12.20" height="337.58" fill="#FDB103"/>
<rect x="175.94" y="405.84" width="12.20" height="52.58" fill="#C98200"/>
<rect x="175.94" y="332.19" width="12.20" height="71.65" fill="#8A5A00"/>
<rect x="175.94" y="300.00" width="12.20" height="30.19" fill="#0D59E0"/>
<rect x="191.59" y="462.53" width="12.20" height="335.47" fill="#FDB103"/>
<rect x="191.59" y="408.73" width="12.20" height="51.79" fill="#C98200"/>
<rect x="191.59" y="333.54" width="12.20" height="73.19" fill="#8A5A00"/>
<rect x="191.59" y="300.00" width="12.20" height="31.54" fill="#0D59E0"/>
<rect x="207.23" y="504.20" width="12.20" height="293.80" fill="#FDB103"/>
<rect x="207.23" y="388.23" width="12.20" height="113.97" fill="#C98200"/>
<rect x="207.23" y="329.83" width="12.20" height="56.39" fill="#8A5A00"/>
<rect x="207.23" y="300.00" width="12.20" height="27.83" fill="#0D59E0"/>
<rect x="222.88" y="452.40" width="12.20" height="345.60" fill="#FDB103"/>
<rect x="222.88" y="397.87" width="12.20" height="52.54" fill="#C98200"/>
<rect x="222.88" y="329.35" width="12.20" height="66.52" fill="#8A5A00"/>
<rect x="222.88" y="300.00" width="12.20" height="27.35" fill="#0D59E0"/>
<rect x="238.52" y="460.80" width="12.20" height="337.20" fill="#FDB103"/>
<rect x="238.52" y="399.97" width="12.20" height="58.83" fill="#C98200"/>
<rect x="238.52" y="332.09" width="12.20" height="65.88" fill="#8A5A00"/>
<rect x="238.52" y="300.00" width="12.20" height="30.09" fill="#0D59E0"/>
<rect x="254.17" y="431.40" width="12.20" height="366.60" fill="#FDB103"/>
<rect x="254.17" y="386.99" width="12.20" height="42.42" fill="#C98200"/>
<rect x="254.17" y="322.37" width="12.20" height="62.61" fill="#8A5A00"/>
<rect x="254.17" y="300.00" width="12.20" height="20.37" fill="#0D59E0"/>
<rect x="269.81" y="421.94" width="12.20" height="376.06" fill="#FDB103"/>
<rect x="269.81" y="374.51" width="12.20" height="45.43" fill="#C98200"/>
<rect x="269.81" y="321.77" width="12.20" height="50.74" fill="#8A5A00"/>
<rect x="269.81" y="300.00" width="12.20" height="19.77" fill="#0D59E0"/>
<rect x="285.45" y="489.68" width="12.20" height="308.32" fill="#FDB103"/>
<rect x="285.45" y="438.75" width="12.20" height="48.93" fill="#C98200"/>
<rect x="285.45" y="343.93" width="12.20" height="92.82" fill="#8A5A00"/>
<rect x="285.45" y="300.00" width="12.20" height="41.93" fill="#0D59E0"/>
<rect x="301.10" y="462.20" width="12.20" height="335.80" fill="#FDB103"/>
<rect x="301.10" y="417.76" width="12.20" height="42.43" fill="#C98200"/>
<rect x="301.10" y="340.66" width="12.20" height="75.10" fill="#8A5A00"/>
<rect x="301.10" y="300.00" width="12.20" height="38.66" fill="#0D59E0"/>
<rect x="316.74" y="494.89" width="12.20" height="303.11" fill="#FDB103"/>
<rect x="316.74" y="452.97" width="12.20" height="39.93" fill="#C98200"/>
<rect x="316.74" y="350.59" width="12.20" height="100.38" fill="#8A5A00"/>
<rect x="316.74" y="300.00" width="12.20" height="48.59" fill="#0D59E0"/>
<rect x="332.39" y="478.76" width="12.20" height="319.24" fill="#FDB103"/>
<rect x="332.39" y="419.94" width="12.20" height="56.82" fill="#C98200"/>
<rect x="332.39" y="340.45" width="12.20" height="77.48" fill="#8A5A00"/>
<rect x="332.39" y="300.00" width="12.20" height="38.45" fill="#0D59E0"/>
<rect x="348.03" y="487.00" width="12.20" height="311.00" fill="#FDB103"/>
<rect x="348.03" y="420.40" width="12.20" height="64.61" fill="#C98200"/>
<rect x="348.03" y="353.24" width="12.20" height="65.15" fill="#8A5A00"/>
<rect x="348.03" y="300.00" width="12.20" height="51.24" fill="#0D59E0"/>
<rect x="363.68" y="450.54" width="12.20" height="347.46" fill="#FDB103"/>
<rect x="363.68" y="397.16" width="12.20" height="51.38" fill="#C98200"/>
<rect x="363.68" y="341.46" width="12.20" height="53.70" fill="#8A5A00"/>
<rect x="363.68" y="300.00" width="12.20" height="39.46" fill="#0D59E0"/>
<rect x="379.32" y="459.57" width="12.20" height="338.43" fill="#FDB103"/>
<rect x="379.32" y="401.63" width="12.20" height="55.94" fill="#C98200"/>
<rect x="379.32" y="347.48" width="12.20" height="52.15" fill="#8A5A00"/>
<rect x="379.32" y="300.00" width="12.20" height="45.48" fill="#0D59E0"/>
<rect x="394.97" y="473.82" width="12.20" height="324.18" fill="#FDB103"/>
<rect x="394.97" y="409.39" width="12.20" height="62.43" fill="#C98200"/>
<rect x="394.97" y="353.50" width="12.20" height="53.89" fill="#8A5A00"/>
<rect x="394.97" y="300.00" width="12.20" height="51.50" fill="#0D59E0"/>
<rect x="410.61" y="491.64" width="12.20" height="306.36" fill="#FDB103"/>
<rect x="410.61" y="410.12" width="12.20" height="79.52" fill="#C98200"/>
<rect x="410.61" y="356.38" width="12.20" height="51.74" fill="#8A5A00"/>
<rect x="410.61" y="300.00" width="12.20" height="54.38" fill="#0D59E0"/>
<rect x="426.25" y="485.48" width="12.20" height="312.52" fill="#FDB103"/>
<rect x="426.25" y="403.72" width="12.20" height="79.76" fill="#C98200"/>
<rect x="426.25" y="349.21" width="12.20" height="52.51" fill="#8A5A00"/>
<rect x="426.25" y="300.00" width="12.20" height="47.21" fill="#0D59E0"/>
<rect x="441.90" y="476.26" width="12.20" height="321.74" fill="#FDB103"/>
<rect x="441.90" y="399.36" width="12.20" height="74.91" fill="#C98200"/>
<rect x="441.90" y="344.05" width="12.20" height="53.31" fill="#8A5A00"/>
<rect x="441.90" y="300.00" width="12.20" height="42.05" fill="#0D59E0"/>
<rect x="457.54" y="489.47" width="12.20" height="308.53" fill="#FDB103"/>
<rect x="457.54" y="409.99" width="12.20" height="77.47" fill="#C98200"/>
<rect x="457.54" y="357.74" width="12.20" height="50.26" fill="#8A5A00"/>
<rect x="457.54" y="300.00" width="12.20" height="55.74" fill="#0D59E0"/>
<rect x="473.19" y="491.14" width="12.20" height="306.86" fill="#FDB103"/>
<rect x="473.19" y="406.99" width="12.20" height="82.15" fill="#C98200"/>
<rect x="473.19" y="351.20" width="12.20" height="53.79" fill="#8A5A00"/>
<rect x="473.19" y="300.00" width="12.20" height="49.20" fill="#0D59E0"/>
<rect x="488.83" y="494.15" width="12.20" height="303.85" fill="#FDB103"/>
<rect x="488.83" y="414.96" width="12.20" height="77.18" fill="#C98200"/>
<rect x="488.83" y="360.28" width="12.20" height="52.69" fill="#8A5A00"/>
<rect x="488.83" y="300.00" width="12.20" height="58.28" fill="#0D59E0"/>
<rect x="504.48" y="494.69" width="12.20" height="303.31" fill="#FDB103"/>
<rect x="504.48" y="403.19" width="12.20" height="89.50" fill="#C98200"/>
<rect x="504.48" y="346.95" width="12.20" height="54.23" fill="#8A5A00"/>
<rect x="504.48" y="300.00" width="12.20" height="44.95" fill="#0D59E0"/>
<rect x="520.12" y="488.58" width="12.20" height="309.42" fill="#FDB103"/>
<rect x="520.12" y="404.41" width="12.20" height="82.17" fill="#C98200"/>
<rect x="520.12" y="353.87" width="12.20" height="48.54" fill="#8A5A00"/>
<rect x="520.12" y="300.00" width="12.20" height="51.87" fill="#0D59E0"/>
<rect x="535.77" y="518.71" width="12.20" height="279.29" fill="#FDB103"/>
<rect x="535.77" y="428.27" width="12.20" height="88.44" fill="#C98200"/>
<rect x="535.77" y="366.31" width="12.20" height="59.96" fill="#8A5A00"/>
<rect x="535.77" y="300.00" width="12.20" height="64.31" fill="#0D59E0"/>
<rect x="551.41" y="507.70" width="12.20" height="290.30" fill="#FDB103"/>
<rect x="551.41" y="422.40" width="12.20" height="83.29" fill="#C98200"/>
<rect x="551.41" y="357.29" width="12.20" height="63.12" fill="#8A5A00"/>
<rect x="551.41" y="300.00" width="12.20" height="55.29" fill="#0D59E0"/>
<rect x="567.05" y="505.64" width="12.20" height="292.36" fill="#FDB103"/>
<rect x="567.05" y="426.32" width="12.20" height="77.31" fill="#C98200"/>
<rect x="567.05" y="372.31" width="12.20" height="52.01" fill="#8A5A00"/>
<rect x="567.05" y="300.00" width="12.20" height="70.31" fill="#0D59E0"/>
<rect x="582.70" y="498.86" width="12.20" height="299.14" fill="#FDB103"/>
<rect x="582.70" y="416.15" width="12.20" height="80.71" fill="#C98200"/>
<rect x="582.70" y="353.84" width="12.20" height="60.31" fill="#8A5A00"/>
<rect x="582.70" y="300.00" width="12.20" height="51.84" fill="#0D59E0"/>
<rect x="598.34" y="490.58" width="12.20" height="307.42" fill="#FDB103"/>
<rect x="598.34" y="406.04" width="12.20" height="82.55" fill="#C98200"/>
<rect x="598.34" y="352.73" width="12.20" height="51.31" fill="#8A5A00"/>
<rect x="598.34" y="300.00" width="12.20" height="50.73" fill="#0D59E0"/>
<rect x="613.99" y="470.79" width="12.20" height="327.21" fill="#FDB103"/>
<rect x="613.99" y="404.18" width="12.20" height="64.61" fill="#C98200"/>
<rect x="613.99" y="355.98" width="12.20" height="46.21" fill="#8A5A00"/>
<rect x="613.99" y="300.00" width="12.20" height="53.98" fill="#0D59E0"/>
<rect x="629.63" y="455.89" width="12.20" height="342.11" fill="#FDB103"/>
<rect x="629.63" y="395.24" width="12.20" height="58.65" fill="#C98200"/>
<rect x="629.63" y="354.76" width="12.20" height="38.49" fill="#8A5A00"/>
<rect x="629.63" y="300.00" width="12.20" height="52.76" fill="#0D59E0"/>
<rect x="645.28" y="483.11" width="12.20" height="314.89" fill="#FDB103"/>
<rect x="645.28" y="425.10" width="12.20" height="56.02" fill="#C98200"/>
<rect x="645.28" y="384.89" width="12.20" height="38.20" fill="#8A5A00"/>
<rect x="645.28" y="300.00" width="12.20" height="82.89" fill="#0D59E0"/>
<rect x="660.92" y="449.70" width="12.20" height="348.30" fill="#FDB103"/>
<rect x="660.92" y="394.05" width="12.20" height="53.64" fill="#C98200"/>
<rect x="660.92" y="355.09" width="12.20" height="36.97" fill="#8A5A00"/>
<rect x="660.92" y="300.00" width="12.20" height="53.09" fill="#0D59E0"/>
<rect x="676.57" y="449.35" width="12.20" height="348.65" fill="#FDB103"/>
<rect x="676.57" y="392.67" width="12.20" height="54.68" fill="#C98200"/>
<rect x="676.57" y="350.43" width="12.20" height="40.25" fill="#8A5A00"/>
<rect x="676.57" y="300.00" width="12.20" height="48.43" fill="#0D59E0"/>
<rect x="692.21" y="440.61" width="12.20" height="357.39" fill="#FDB103"/>
<rect x="692.21" y="388.21" width="12.20" height="50.40" fill="#C98200"/>
<rect x="692.21" y="346.92" width="12.20" height="39.29" fill="#8A5A00"/>
<rect x="692.21" y="300.00" width="12.20" height="44.92" fill="#0D59E0"/>
<rect x="707.85" y="457.02" width="12.20" height="340.98" fill="#FDB103"/>
<rect x="707.85" y="403.89" width="12.20" height="51.13" fill="#C98200"/>
<rect x="707.85" y="364.71" width="12.20" height="37.17" fill="#8A5A00"/>
<rect x="707.85" y="300.00" width="12.20" height="62.71" fill="#0D59E0"/>
<rect x="723.50" y="464.93" width="12.20" height="333.07" fill="#FDB103"/>
<rect x="723.50" y="404.42" width="12.20" height="58.51" fill="#C98200"/>
<rect x="723.50" y="359.28" width="12.20" height="43.14" fill="#8A5A00"/>
<rect x="723.50" y="300.00" width="12.20" height="57.28" fill="#0D59E0"/>
<rect x="739.14" y="464.17" width="12.20" height="333.83" fill="#FDB103"/>
<rect x="739.14" y="414.16" width="12.20" height="48.02" fill="#C98200"/>
<rect x="739.14" y="371.57" width="12.20" height="40.59" fill="#8A5A00"/>
<rect x="739.14" y="300.00" width="12.20" height="69.57" fill="#0D59E0"/>
<rect x="754.79" y="477.01" width="12.20" height="320.99" fill="#FDB103"/>
<rect x="754.79" y="420.00" width="12.20" height="55.00" fill="#C98200"/>
<rect x="754.79" y="375.34" width="12.20" height="42.67" fill="#8A5A00"/>
<rect x="754.79" y="300.00" width="12.20" height="73.34" fill="#0D59E0"/>
<rect x="770.43" y="466.31" width="12.20" height="331.69" fill="#FDB103"/>
<rect x="770.43" y="409.92" width="12.20" height="54.39" fill="#C98200"/>
<rect x="770.43" y="362.90" width="12.20" height="45.02" fill="#8A5A00"/>
<rect x="770.43" y="300.00" width="12.20" height="60.90" fill="#0D59E0"/>
<rect x="786.08" y="459.69" width="12.20" height="338.31" fill="#FDB103"/>
<rect x="786.08" y="409.58" width="12.20" height="48.12" fill="#C98200"/>
<rect x="786.08" y="360.39" width="12.20" height="47.18" fill="#8A5A00"/>
<rect x="786.08" y="300.00" width="12.20" height="58.39" fill="#0D59E0"/>
<rect x="801.72" y="436.47" width="12.20" height="361.53" fill="#FDB103"/>
<rect x="801.72" y="393.36" width="12.20" height="41.11" fill="#C98200"/>
<rect x="801.72" y="364.36" width="12.20" height="27.00" fill="#8A5A00"/>
<rect x="801.72" y="300.00" width="12.20" height="62.36" fill="#0D59E0"/>
<rect x="817.37" y="459.13" width="12.20" height="338.87" fill="#FDB103"/>
<rect x="817.37" y="407.16" width="12.20" height="49.96" fill="#C98200"/>
<rect x="817.37" y="373.49" width="12.20" height="31.67" fill="#8A5A00"/>
<rect x="817.37" y="300.00" width="12.20" height="71.49" fill="#0D59E0"/>
<rect x="833.01" y="484.37" width="12.20" height="313.63" fill="#FDB103"/>
<rect x="833.01" y="431.18" width="12.20" height="51.18" fill="#C98200"/>
<rect x="833.01" y="396.10" width="12.20" height="33.09" fill="#8A5A00"/>
<rect x="833.01" y="300.00" width="12.20" height="94.10" fill="#0D59E0"/>
<rect x="848.65" y="488.75" width="12.20" height="309.25" fill="#FDB103"/>
<rect x="848.65" y="436.73" width="12.20" height="50.02" fill="#C98200"/>
<rect x="848.65" y="396.16" width="12.20" height="38.57" fill="#8A5A00"/>
<rect x="848.65" y="300.00" width="12.20" height="94.16" fill="#0D59E0"/>
<rect x="864.30" y="518.46" width="12.20" height="279.54" fill="#FDB103"/>
<rect x="864.30" y="454.20" width="12.20" height="62.25" fill="#C98200"/>
<rect x="864.30" y="408.93" width="12.20" height="43.27" fill="#8A5A00"/>
<rect x="864.30" y="300.00" width="12.20" height="106.93" fill="#0D59E0"/>
<rect x="879.94" y="503.61" width="12.20" height="294.39" fill="#FDB103"/>
<rect x="879.94" y="435.50" width="12.20" height="66.11" fill="#C98200"/>
<rect x="879.94" y="379.23" width="12.20" height="54.27" fill="#8A5A00"/>
<rect x="879.94" y="300.00" width="12.20" height="77.23" fill="#0D59E0"/>
<rect x="895.59" y="498.14" width="12.20" height="299.86" fill="#FDB103"/>
<rect x="895.59" y="429.09" width="12.20" height="67.04" fill="#C98200"/>
<rect x="895.59" y="381.08" width="12.20" height="46.01" fill="#8A5A00"/>
<rect x="895.59" y="300.00" width="12.20" height="79.08" fill="#0D59E0"/>
<rect x="911.23" y="460.34" width="12.20" height="337.66" fill="#FDB103"/>
<rect x="911.23" y="401.01" width="12.20" height="57.33" fill="#C98200"/>
<rect x="911.23" y="359.25" width="12.20" height="39.76" fill="#8A5A00"/>
<rect x="911.23" y="300.00" width="12.20" height="57.25" fill="#0D59E0"/>
<rect x="926.88" y="467.87" width="12.20" height="330.13" fill="#FDB103"/>
<rect x="926.88" y="412.10" width="12.20" height="53.77" fill="#C98200"/>
<rect x="926.88" y="364.68" width="12.20" height="45.42" fill="#8A5A00"/>
<rect x="926.88" y="300.00" width="12.20" height="62.68" fill="#0D59E0"/>
<rect x="942.52" y="453.35" width="12.20" height="344.65" fill="#FDB103"/>
<rect x="942.52" y="404.18" width="12.20" height="47.17" fill="#C98200"/>
<rect x="942.52" y="362.15" width="12.20" height="40.02" fill="#8A5A00"/>
<rect x="942.52" y="300.00" width="12.20" height="60.15" fill="#0D59E0"/>
<rect x="958.17" y="468.64" width="12.20" height="329.36" fill="#FDB103"/>
<rect x="958.17" y="423.38" width="12.20" height="43.26" fill="#C98200"/>
<rect x="958.17" y="365.40" width="12.20" height="55.97" fill="#8A5A00"/>
<rect x="958.17" y="300.00" width="12.20" height="63.40" fill="#0D59E0"/>
<rect x="973.81" y="456.30" width="12.20" height="341.70" fill="#FDB103"/>
<rect x="973.81" y="402.67" width="12.20" height="51.62" fill="#C98200"/>
<rect x="973.81" y="353.33" width="12.20" height="47.34" fill="#8A5A00"/>
<rect x="973.81" y="300.00" width="12.20" height="51.33" fill="#0D59E0"/>
<rect x="989.45" y="478.91" width="12.20" height="319.09" fill="#FDB103"/>
<rect x="989.45" y="413.30" width="12.20" height="63.60" fill="#C98200"/>
<rect x="989.45" y="367.35" width="12.20" height="43.96" fill="#8A5A00"/>
<rect x="989.45" y="300.00" width="12.20" height="65.35" fill="#0D59E0"/>
<rect x="1005.10" y="459.69" width="12.20" height="338.31" fill="#FDB103"/>
<rect x="1005.10" y="398.05" width="12.20" height="59.65" fill="#C98200"/>
<rect x="1005.10" y="352.32" width="12.20" height="43.73" fill="#8A5A00"/>
<rect x="1005.10" y="300.00" width="12.20" height="50.32" fill="#0D59E0"/>
<rect x="1020.74" y="476.81" width="12.20" height="321.19" fill="#FDB103"/>
<rect x="1020.74" y="417.30" width="12.20" height="57.51" fill="#C98200"/>
<rect x="1020.74" y="378.72" width="12.20" height="36.59" fill="#8A5A00"/>
<rect x="1020.74" y="300.00" width="12.20" height="76.72" fill="#0D59E0"/>
<rect x="1036.39" y="490.10" width="12.20" height="307.90" fill="#FDB103"/>
<rect x="1036.39" y="420.62" width="12.20" height="67.48" fill="#C98200"/>
<rect x="1036.39" y="385.39" width="12.20" height="33.22" fill="#8A5A00"/>
<rect x="1036.39" y="300.00" width="12.20" height="83.39" fill="#0D59E0"/>
<rect x="1052.03" y="496.82" width="12.20" height="301.18" fill="#FDB103"/>
<rect x="1052.03" y="422.57" width="12.20" height="72.25" fill="#C98200"/>
<rect x="1052.03" y="390.60" width="12.20" height="29.97" fill="#8A5A00"/>
<rect x="1052.03" y="300.00" width="12.20" height="88.60" fill="#0D59E0"/>
<rect x="1067.68" y="504.92" width="12.20" height="293.08" fill="#FDB103"/>
<rect x="1067.68" y="434.10" width="12.20" height="68.83" fill="#C98200"/>
<rect x="1067.68" y="399.28" width="12.20" height="32.82" fill="#8A5A00"/>
<rect x="1067.68" y="300.00" width="12.20" height="97.28" fill="#0D59E0"/>
<rect x="1083.32" y="467.55" width="12.20" height="330.45" fill="#FDB103"/>
<rect x="1083.32" y="400.88" width="12.20" height="64.67" fill="#C98200"/>
<rect x="1083.32" y="363.02" width="12.20" height="35.86" fill="#8A5A00"/>
<rect x="1083.32" y="300.00" width="12.20" height="61.02" fill="#0D59E0"/>
<rect x="1098.97" y="489.03" width="12.20" height="308.97" fill="#FDB103"/>
<rect x="1098.97" y="400.17" width="12.20" height="86.86" fill="#C98200"/>
<rect x="1098.97" y="363.85" width="12.20" height="34.32" fill="#8A5A00"/>
<rect x="1098.97" y="300.00" width="12.20" height="61.85" fill="#0D59E0"/>
<rect x="1114.61" y="505.18" width="12.20" height="292.82" fill="#FDB103"/>
<rect x="1114.61" y="417.34" width="12.20" height="85.83" fill="#C98200"/>
<rect x="1114.61" y="378.45" width="12.20" height="36.89" fill="#8A5A00"/>
<rect x="1114.61" y="300.00" width="12.20" height="76.45" fill="#0D59E0"/>
<rect x="1130.25" y="515.29" width="12.20" height="282.71" fill="#FDB103"/>
<rect x="1130.25" y="428.05" width="12.20" height="85.24" fill="#C98200"/>
<rect x="1130.25" y="391.30" width="12.20" height="34.75" fill="#8A5A00"/>
<rect x="1130.25" y="300.00" width="12.20" height="89.30" fill="#0D59E0"/>
<rect x="1145.90" y="504.62" width="12.20" height="293.38" fill="#FDB103"/>
<rect x="1145.90" y="404.57" width="12.20" height="98.05" fill="#C98200"/>
<rect x="1145.90" y="360.85" width="12.20" height="41.72" fill="#8A5A00"/>
<rect x="1145.90" y="300.00" width="12.20" height="58.85" fill="#0D59E0"/>
<rect x="1161.54" y="490.21" width="12.20" height="307.79" fill="#FDB103"/>
<rect x="1161.54" y="397.91" width="12.20" height="90.30" fill="#C98200"/>
<rect x="1161.54" y="357.25" width="12.20" height="38.66" fill="#8A5A00"/>
<rect x="1161.54" y="300.00" width="12.20" height="55.25" fill="#0D59E0"/>
<rect x="1177.19" y="493.19" width="12.20" height="304.81" fill="#FDB103"/>
<rect x="1177.19" y="413.62" width="12.20" height="77.57" fill="#C98200"/>
<rect x="1177.19" y="371.45" width="12.20" height="40.18" fill="#8A5A00"/>
<rect x="1177.19" y="300.00" width="12.20" height="69.45" fill="#0D59E0"/>
<rect x="1192.83" y="516.61" width="12.20" height="281.39" fill="#FDB103"/>
<rect x="1192.83" y="444.20" width="12.20" height="70.41" fill="#C98200"/>
<rect x="1192.83" y="397.45" width="12.20" height="44.74" fill="#8A5A00"/>
<rect x="1192.83" y="300.00" width="12.20" height="95.45" fill="#0D59E0"/>
<rect x="1208.48" y="504.92" width="12.20" height="293.08" fill="#FDB103"/>
<rect x="1208.48" y="410.96" width="12.20" height="91.97" fill="#C98200"/>
<rect x="1208.48" y="363.73" width="12.20" height="45.23" fill="#8A5A00"/>
<rect x="1208.48" y="300.00" width="12.20" height="61.73" fill="#0D59E0"/>
<rect x="1224.12" y="521.16" width="12.20" height="276.84" fill="#FDB103"/>
<rect x="1224.12" y="426.05" width="12.20" height="93.11" fill="#C98200"/>
<rect x="1224.12" y="382.90" width="12.20" height="41.15" fill="#8A5A00"/>
<rect x="1224.12" y="300.00" width="12.20" height="80.90" fill="#0D59E0"/>
<rect x="1239.77" y="534.26" width="12.20" height="263.74" fill="#FDB103"/>
<rect x="1239.77" y="434.23" width="12.20" height="98.02" fill="#C98200"/>
<rect x="1239.77" y="396.94" width="12.20" height="35.29" fill="#8A5A00"/>
<rect x="1239.77" y="300.00" width="12.20" height="94.94" fill="#0D59E0"/>
<rect x="1255.41" y="556.11" width="12.20" height="241.89" fill="#FDB103"/>
<rect x="1255.41" y="465.56" width="12.20" height="88.55" fill="#C98200"/>
<rect x="1255.41" y="429.10" width="12.20" height="34.46" fill="#8A5A00"/>
<rect x="1255.41" y="300.00" width="12.20" height="127.10" fill="#0D59E0"/>
<rect x="1271.05" y="529.50" width="12.20" height="268.50" fill="#FDB103"/>
<rect x="1271.05" y="444.31" width="12.20" height="83.19" fill="#C98200"/>
<rect x="1271.05" y="406.81" width="12.20" height="35.50" fill="#8A5A00"/>
<rect x="1271.05" y="300.00" width="12.20" height="104.81" fill="#0D59E0"/>
<rect x="1286.70" y="570.18" width="12.20" height="227.82" fill="#FDB103"/>
<rect x="1286.70" y="470.52" width="12.20" height="97.65" fill="#C98200"/>
<rect x="1286.70" y="429.53" width="12.20" height="38.99" fill="#8A5A00"/>
<rect x="1286.70" y="300.00" width="12.20" height="127.53" fill="#0D59E0"/>
<rect x="1302.34" y="529.82" width="12.20" height="268.18" fill="#FDB103"/>
<rect x="1302.34" y="424.02" width="12.20" height="103.80" fill="#C98200"/>
<rect x="1302.34" y="373.58" width="12.20" height="48.44" fill="#8A5A00"/>
<rect x="1302.34" y="300.00" width="12.20" height="71.58" fill="#0D59E0"/>
<rect x="1317.99" y="539.07" width="12.20" height="258.93" fill="#FDB103"/>
<rect x="1317.99" y="421.57" width="12.20" height="115.50" fill="#C98200"/>
<rect x="1317.99" y="372.45" width="12.20" height="47.11" fill="#8A5A00"/>
<rect x="1317.99" y="300.00" width="12.20" height="70.45" fill="#0D59E0"/>
<rect x="1333.63" y="546.79" width="12.20" height="251.21" fill="#FDB103"/>
<rect x="1333.63" y="413.57" width="12.20" height="131.21" fill="#C98200"/>
<rect x="1333.63" y="369.16" width="12.20" height="42.42" fill="#8A5A00"/>
<rect x="1333.63" y="300.00" width="12.20" height="67.16" fill="#0D59E0"/>
<rect x="1349.28" y="557.62" width="12.20" height="240.38" fill="#FDB103"/>
<rect x="1349.28" y="414.05" width="12.20" height="141.58" fill="#C98200"/>
<rect x="1349.28" y="366.04" width="12.20" height="46.01" fill="#8A5A00"/>
<rect x="1349.28" y="300.00" width="12.20" height="64.04" fill="#0D59E0"/>
<rect x="1364.92" y="534.36" width="12.20" height="263.64" fill="#FDB103"/>
<rect x="1364.92" y="406.46" width="12.20" height="125.89" fill="#C98200"/>
<rect x="1364.92" y="361.97" width="12.20" height="42.49" fill="#8A5A00"/>
<rect x="1364.92" y="300.00" width="12.20" height="59.97" fill="#0D59E0"/>
<rect x="1380.57" y="549.97" width="12.20" height="248.03" fill="#FDB103"/>
<rect x="1380.57" y="439.12" width="12.20" height="108.85" fill="#C98200"/>
<rect x="1380.57" y="402.01" width="12.20" height="35.11" fill="#8A5A00"/>
<rect x="1380.57" y="300.00" width="12.20" height="100.01" fill="#0D59E0"/>
<rect x="1396.21" y="540.74" width="12.20" height="257.26" fill="#FDB103"/>
<rect x="1396.21" y="452.88" width="12.20" height="85.87" fill="#C98200"/>
<rect x="1396.21" y="410.64" width="12.20" height="40.24" fill="#8A5A00"/>
<rect x="1396.21" y="300.00" width="12.20" height="108.64" fill="#0D59E0"/>
<rect x="1411.85" y="555.52" width="12.20" height="242.48" fill="#FDB103"/>
<rect x="1411.85" y="451.91" width="12.20" height="101.61" fill="#C98200"/>
<rect x="1411.85" y="391.76" width="12.20" height="58.16" fill="#8A5A00"/>
<rect x="1411.85" y="300.00" width="12.20" height="89.76" fill="#0D59E0"/>
<rect x="1427.50" y="566.30" width="12.20" height="231.70" fill="#FDB103"/>
<rect x="1427.50" y="434.47" width="12.20" height="129.83" fill="#C98200"/>
<rect x="1427.50" y="382.23" width="12.20" height="50.24" fill="#8A5A00"/>
<rect x="1427.50" y="300.00" width="12.20" height="80.23" fill="#0D59E0"/>
<rect x="1443.14" y="593.63" width="12.20" height="204.37" fill="#FDB103"/>
<rect x="1443.14" y="474.31" width="12.20" height="117.32" fill="#C98200"/>
<rect x="1443.14" y="431.19" width="12.20" height="41.12" fill="#8A5A00"/>
<rect x="1443.14" y="300.00" width="12.20" height="129.19" fill="#0D59E0"/>
<rect x="1458.79" y="574.82" width="12.20" height="223.18" fill="#FDB103"/>
<rect x="1458.79" y="447.14" width="12.20" height="125.68" fill="#C98200"/>
<rect x="1458.79" y="388.06" width="12.20" height="57.08" fill="#8A5A00"/>
<rect x="1458.79" y="300.00" width="12.20" height="86.06" fill="#0D59E0"/>
<rect x="1474.43" y="579.23" width="12.20" height="218.77" fill="#FDB103"/>
<rect x="1474.43" y="455.89" width="12.20" height="121.34" fill="#C98200"/>
<rect x="1474.43" y="409.60" width="12.20" height="44.29" fill="#8A5A00"/>
<rect x="1474.43" y="300.00" width="12.20" height="107.60" fill="#0D59E0"/>
<rect x="1490.08" y="586.92" width="12.20" height="211.08" fill="#FDB103"/>
<rect x="1490.08" y="473.72" width="12.20" height="111.21" fill="#C98200"/>
<rect x="1490.08" y="432.46" width="12.20" height="39.26" fill="#8A5A00"/>
<rect x="1490.08" y="300.00" width="12.20" height="130.46" fill="#0D59E0"/>
<text x="96" y="840" font-family="ui-monospace, Menlo, monospace" font-size="19" fill="#6E6E6E">Jun 21, 2026</text>
<text x="1504" y="840" text-anchor="end" font-family="ui-monospace, Menlo, monospace" font-size="19" fill="#6E6E6E">Sep 18, 2026</text>
<circle cx="104" cy="910" r="8" fill="#FDB103"/>
<text x="126" y="917" font-size="21" fill="#FFFFFF">Anthropic</text>
<text x="1504" y="917" text-anchor="end" font-family="ui-monospace, Menlo, monospace" font-size="21" fill="#FFFFFF">42.6%</text>
<circle cx="104" cy="954" r="8" fill="#C98200"/>
<text x="126" y="961" font-size="21" fill="#FFFFFF">OpenAI</text>
<text x="1504" y="961" text-anchor="end" font-family="ui-monospace, Menlo, monospace" font-size="21" fill="#FFFFFF">22.6%</text>
<circle cx="104" cy="998" r="8" fill="#8A5A00"/>
<text x="126" y="1005" font-size="21" fill="#FFFFFF">Other Closed</text>
<text x="1504" y="1005" text-anchor="end" font-family="ui-monospace, Menlo, monospace" font-size="21" fill="#FFFFFF">8.3%</text>
<circle cx="104" cy="1042" r="8" fill="#0D59E0"/>
<text x="126" y="1049" font-size="21" fill="#FFFFFF">Open Weights</text>
<text x="1504" y="1049" text-anchor="end" font-family="ui-monospace, Menlo, monospace" font-size="21" fill="#FFFFFF">26.5%</text>
<text x="96" y="1090" font-family="ui-monospace, Menlo, monospace" font-size="16" fill="#6E6E6E">Data: "AI Gateway Leaderboard Data" © 2026 Vercel · CC BY 4.0 · creativecommons.org/licenses/by/4.0</text>
<text x="96" y="1114" font-family="ui-monospace, Menlo, monospace" font-size="16" fill="#6E6E6E">Chart by Jeremiah Dillon · Independent analysis, not affiliated with or endorsed by Vercel</text>
</svg>